<?xml version="1.0" encoding="iso-8859-1"?>
<!-- Generator: Adobe Illustrator 19.0.0, SVG Export Plug-In . SVG Version: 6.00 Build 0)  -->
<svg version="1.1" id="Capa_1" xmlns="http://www.w3.org/2000/svg" xmlns:xlink="http://www.w3.org/1999/xlink" x="0px" y="0px"
	 viewBox="0 0 512.001 512.001" style="enable-background:new 0 0 512.001 512.001;" xml:space="preserve">
<g>
	<polygon style="fill:#FF6BA6;" points="109.603,212.515 14.09,181.779 16.867,333.016 107.49,469.427 166.738,388.357 	"/>
	<polygon style="fill:#FF6BA6;" points="345.262,388.367 402.396,212.536 497.909,181.789 495.133,333.027 404.509,469.435 	"/>
	<polygon style="fill:#FF6BA6;" points="104.686,467.538 163.549,386.052 348.44,386.052 407.293,467.538 255.99,503.987 	"/>
	<polygon style="fill:#FF6BA6;" points="12.987,184.964 112.085,60.256 257.698,7.201 257.97,107.582 108.396,216.258 	"/>
	<polygon style="fill:#FF6BA6;" points="254.039,107.592 254.323,7.201 399.925,60.256 499.032,184.974 403.614,216.268 	"/>
</g>
<polygon style="fill:#FFABCD;" points="255.99,104.243 105.711,213.421 163.114,390.089 348.875,390.089 406.269,213.421 "/>
<path d="M6.724,181.017c-0.443,1.178-0.677,2.44-0.653,3.732l2.714,147.825c0.035,1.923,0.62,3.797,1.684,5.398l88.695,133.508
	c0.732,1.102,1.667,2.022,2.73,2.747c1.117,0.87,2.409,1.522,3.826,1.863l147.906,35.629c0.777,0.188,1.57,0.281,2.363,0.281
	c0.793,0,1.586-0.094,2.363-0.281l147.906-35.629c1.356-0.326,2.597-0.936,3.681-1.75c1.131-0.739,2.126-1.693,2.895-2.851
	l88.695-133.507c1.065-1.601,1.649-3.474,1.684-5.398l2.714-147.825c0.023-1.248-0.19-2.47-0.602-3.613
	c-0.361-1.242-0.951-2.424-1.778-3.466L474.401,141c-3.468-4.362-9.813-5.091-14.178-1.622c-4.362,3.467-5.089,9.815-1.622,14.178
	l20.129,25.331l-73.007,23.944L266.165,101.435l0.218-76.953l126.187,45.98l26.963,33.931c3.468,4.362,9.813,5.09,14.178,1.622
	c4.362-3.467,5.089-9.815,1.622-14.178l-28.734-36.159c-1.157-1.457-2.696-2.565-4.445-3.203L259.788,0.6
	c-1.227-0.447-2.508-0.636-3.777-0.594c-1.269-0.041-2.551,0.147-3.778,0.594L109.856,52.475c-1.748,0.637-3.287,1.745-4.445,3.203
	L8.472,177.671C7.67,178.68,7.088,179.819,6.724,181.017z M171.912,377.98l-51.966-159.934L255.99,119.21l136.044,98.836
	L340.078,377.98H171.912z M26.506,198.495L100,222.145l53.308,164.066l-45.345,62.046L28.908,329.259L26.506,198.495z
	 M255.99,491.531l-130.917-31.537l44.666-61.833H342.25l44.659,61.833L255.99,491.531z M483.092,329.27l-79.056,118.997
	l-45.344-62.046l53.308-164.056l73.494-23.657L483.092,329.27z M119.44,70.462l126.196-45.979l0.209,76.943L106.287,202.824
	l-72.998-23.945L119.44,70.462z"/>
<path d="M282.317,263.412c7.997-7.198,13.036-17.621,13.036-29.202c0-21.666-17.627-39.291-39.292-39.291
	s-39.291,17.626-39.291,39.291c0,11.581,5.038,22.004,13.035,29.202c-7.997,7.198-13.035,17.621-13.035,29.202
	c0,21.661,17.626,39.283,39.291,39.283s39.292-17.622,39.292-39.283C295.353,281.033,290.313,270.609,282.317,263.412z
	 M236.949,234.21c0-10.537,8.573-19.11,19.11-19.11s19.111,8.573,19.111,19.11s-8.574,19.111-19.111,19.111
	C245.522,253.322,236.949,244.748,236.949,234.21z M256.06,311.716c-10.537,0-19.11-8.569-19.11-19.102
	c0-10.537,8.573-19.11,19.11-19.11s19.111,8.573,19.111,19.11C275.172,303.146,266.598,311.716,256.06,311.716z"/>
<path d="M253.838,425.526c3.978-2.265,5.933-6.925,4.762-11.352c-1.171-4.426-5.176-7.507-9.754-7.507h-41.754
	c-5.572,0-10.09,4.519-10.09,10.09c0,5.572,4.519,10.09,10.09,10.09h8.923c-13.094,10.572-19.013,19.228-19.013,27.587
	c0,12.288,13.312,21.553,30.967,21.553s30.968-9.266,30.968-21.553c0-5.572-4.519-10.09-10.09-10.09
	c-5.115,0-9.342,3.806-10.001,8.741c-1.246,0.975-4.965,2.721-10.877,2.721c-5.105,0-8.573-1.303-10.228-2.285
	C221.205,447.551,237.357,434.922,253.838,425.526z"/>
<path d="M391.566,119.804c3.668-5.142,3.901-11.962,0.64-18.715c-2.357-4.88-6.489-9.587-11.647-13.264
	c-12.769-9.071-27.298-9.047-33.794,0.054c-3.237,4.536-2.185,10.837,2.352,14.074c3.945,2.816,9.226,2.384,12.664-0.758
	c1.371,0.14,4.053,0.923,7.079,3.073c2.065,1.471,3.473,2.998,4.346,4.216c-6.457,1.774-21.634,2.215-35.434,0.826
	c-4.555-0.46-8.849,2.203-10.46,6.487c-1.612,4.284-0.138,9.117,3.592,11.773l28.374,20.202c1.775,1.263,3.819,1.871,5.843,1.871
	c3.154,0,6.26-1.474,8.229-4.239c3.232-4.54,2.171-10.84-2.368-14.072l-2.347-1.671C380.457,128.403,387.696,125.24,391.566,119.804
	z"/>
<path d="M76.69,316.685l16.028-5.79c6.176-2.227,11.116-6.726,13.906-12.671c2.791-5.942,3.099-12.613,0.871-18.782l-3.441-9.536
	c-0.001-0.003-0.002-0.006-0.003-0.009c-4.609-12.735-18.721-19.359-31.463-14.764l-16.029,5.789
	c-6.177,2.228-11.116,6.728-13.906,12.674c-2.789,5.941-3.098,12.613-0.87,18.789l3.441,9.539
	c2.229,6.172,6.729,11.108,12.673,13.897c3.32,1.558,6.867,2.342,10.425,2.342C71.14,318.163,73.965,317.671,76.69,316.685z
	 M66.471,297.553c-0.615-0.29-1.728-0.996-2.264-2.48l-3.439-9.534c-0.539-1.493-0.134-2.752,0.154-3.367
	c0.289-0.615,0.995-1.726,2.489-2.265l16.029-5.789c0.49-0.178,0.992-0.261,1.486-0.261c1.801,0,3.498,1.116,4.147,2.908l3.44,9.531
	c0.536,1.485,0.132,2.739-0.156,3.352c-0.289,0.615-0.995,1.726-2.489,2.265l-16.04,5.794
	C68.341,298.244,67.087,297.842,66.471,297.553z"/>
<path d="M325.005,432.62l-26.575,15.564v-31.315c0-5.572-4.519-10.09-10.09-10.09c-5.572,0-10.09,4.518-10.09,10.09v48.918
	c0,3.616,1.935,6.956,5.072,8.754c1.554,0.891,3.286,1.336,5.018,1.336c1.763,0,3.525-0.461,5.1-1.383l41.765-24.459
	c4.809-2.816,6.424-8.998,3.607-13.807C335.996,431.419,329.814,429.8,325.005,432.62z"/>
<path d="M114.879,382.327c3.566-4.282,2.985-10.645-1.298-14.211l-21.3-17.733l26.535-9.58c5.242-1.893,7.957-7.676,6.064-12.918
	c-1.891-5.241-7.674-7.955-12.917-6.065l-43.096,15.56c-3.401,1.228-5.886,4.182-6.512,7.744c-0.626,3.562,0.702,7.186,3.482,9.501
	l34.832,29c1.886,1.57,4.175,2.335,6.451,2.335C110.012,385.962,112.884,384.723,114.879,382.327z"/>
<path d="M125.81,135.897c1.995,2.441,4.895,3.705,7.819,3.705c2.244,0,4.503-0.745,6.376-2.275l24.33-19.87l8.997,11.019
	c1.996,2.444,4.897,3.71,7.823,3.71c2.244,0,4.501-0.744,6.374-2.273c4.317-3.525,4.96-9.881,1.437-14.197L173.62,96.921
	c-0.012-0.015-0.022-0.032-0.035-0.047c-0.012-0.015-0.027-0.028-0.039-0.043l-15.337-18.785c-3.525-4.318-9.884-4.958-14.197-1.433
	c-4.317,3.525-4.957,9.882-1.433,14.197l8.994,11.016l-16.519,13.491l-9.005-11.019c-3.527-4.315-9.883-4.953-14.198-1.428
	c-4.315,3.527-4.954,9.884-1.428,14.198L125.81,135.897z"/>
<path d="M401.312,286.277c-4.877,2.697-6.644,8.837-3.946,13.714l28.455,51.45c1.786,3.228,5.177,5.207,8.827,5.207
	c0.244,0,0.488-0.009,0.736-0.026c3.924-0.286,7.326-2.826,8.711-6.508l13.431-35.679c1.964-5.216-0.673-11.036-5.888-12.999
	c-5.223-1.968-11.037,0.674-12.999,5.888l-5.733,15.23l-17.88-32.329C412.329,285.348,406.191,283.583,401.312,286.277z"/>
<path d="M446.709,132.186c12.985,0,13.007-20.181,0-20.181C433.724,112.005,433.703,132.186,446.709,132.186z"/>
<g>
</g>
<g>
</g>
<g>
</g>
<g>
</g>
<g>
</g>
<g>
</g>
<g>
</g>
<g>
</g>
<g>
</g>
<g>
</g>
<g>
</g>
<g>
</g>
<g>
</g>
<g>
</g>
<g>
</g>
</svg>
